<?xml version="1.0" encoding="UTF-8" standalone="no"?>
<svg width="800" height="900" viewBox="0 0 800 900" xmlns="http://www.w3.org/2000/svg">
  <defs>
    <linearGradient id="fullLogoPurpleGrad" x1="0%" y1="0%" x2="100%" y2="0%">
      <stop offset="0%" stop-color="#7C3AED"/>
      <stop offset="100%" stop-color="#A855F7"/>
    </linearGradient>
    <style>
      .symbol-grid {
        fill: none;
        stroke: #03162B;
        stroke-width: 22;
        stroke-linecap: round;
        stroke-linejoin: round;
      }
      .symbol-check {
        fill: none;
        stroke: #F7F7F7;
        stroke-width: 18;
        stroke-linecap: round;
        stroke-linejoin: round;
      }
    </style>
  </defs>

  <rect width="100%" height="100%" fill="none"/>

  <!-- Symbol -->
  <g transform="translate(100,20) scale(0.5859375)">
    <rect class="symbol-grid" x="265" y="260" width="494" height="494" rx="74" ry="74"/>
    <line class="symbol-grid" x1="430" y1="260" x2="430" y2="754"/>
    <line class="symbol-grid" x1="594" y1="260" x2="594" y2="754"/>
    <line class="symbol-grid" x1="265" y1="425" x2="759" y2="425"/>
    <line class="symbol-grid" x1="265" y1="589" x2="759" y2="589"/>

    <circle cx="512" cy="507" r="50" fill="#DE5548"/>

    <path d="M468 116
             H556
             C589 116 616 143 616 176
             V257
             C616 290 589 317 556 317
             H534
             L512 363
             L490 317
             H468
             C435 317 408 290 408 257
             V176
             C408 143 435 116 468 116Z"
          fill="#3DD68C"/>
    <path class="symbol-check" d="M476 214 L503 241 L548 196"/>

    <path d="M132 430
             H222
             C255 430 282 457 282 490
             V505
             L324 530
             L282 555
             V570
             C282 603 255 630 222 630
             H132
             C99 630 72 603 72 570
             V490
             C72 457 99 430 132 430Z"
          fill="#FF624E"/>
    <path class="symbol-check" d="M142 528 L169 555 L214 510"/>

    <path d="M802 430
             H892
             C925 430 952 457 952 490
             V570
             C952 603 925 630 892 630
             H802
             C769 630 742 603 742 570
             V555
             L700 530
             L742 505
             V490
             C742 457 769 430 802 430Z"
          fill="#469AE5"/>
    <path class="symbol-check" d="M812 528 L839 555 L884 510"/>

    <path d="M468 738
             H490
             L512 694
             L534 738
             H556
             C589 738 616 765 616 798
             V888
             C616 921 589 948 556 948
             H468
             C435 948 408 921 408 888
             V798
             C408 765 435 738 468 738Z"
          fill="#F8B321"/>
    <path class="symbol-check" d="M476 841 L503 868 L548 823"/>
  </g>

  <!-- Text -->
  <g transform="translate(125,760)">
    <g transform="scale(0.93)">
      <path fill="#272E37" fill-rule="evenodd"
            d="M161.667 -105.000L185.000 -105.000L185.000 -81.667L208.333 -81.667L208.333 -70.000L185.000 -70.000L185.000 -11.667L208.333 -11.667L208.333 0.000L173.333 0.000L173.333 -11.667L161.667 -11.667L161.667 -70.000L150.000 -70.000L150.000 -81.667L161.667 -81.667ZM348.333 -105.000L371.667 -105.000L371.667 0.000L325.000 0.000L325.000 -11.667L313.333 -11.667L313.333 -23.333L301.667 -23.333L301.667 -58.333L313.333 -58.333L313.333 -70.000L325.000 -70.000L325.000 -81.667L348.333 -81.667ZM476.667 -105.000L500.000 -105.000L500.000 -81.667L523.333 -81.667L523.333 -70.000L500.000 -70.000L500.000 -11.667L523.333 -11.667L523.333 0.000L488.333 0.000L488.333 -11.667L476.667 -11.667L476.667 -70.000L465.000 -70.000L465.000 -81.667L476.667 -81.667ZM0.000 -81.667L23.333 -81.667L23.333 -58.333L46.667 -58.333L46.667 -81.667L70.000 -81.667L70.000 -58.333L58.333 -58.333L58.333 -23.333L46.667 -23.333L46.667 0.000L23.333 0.000L23.333 -23.333L11.667 -23.333L11.667 -58.333L0.000 -58.333ZM231.667 -81.667L278.333 -81.667L278.333 -70.000L290.000 -70.000L290.000 -35.000L243.333 -35.000L243.333 -11.667L266.667 -11.667L266.667 -23.333L290.000 -23.333L290.000 -11.667L278.333 -11.667L278.333 0.000L231.667 0.000L231.667 -11.667L220.000 -11.667L220.000 -70.000L231.667 -70.000ZM406.667 -81.667L441.667 -81.667L441.667 -70.000L453.333 -70.000L453.333 -58.333L465.000 -58.333L465.000 -23.333L453.333 -23.333L453.333 -11.667L441.667 -11.667L441.667 0.000L406.667 0.000L406.667 -11.667L395.000 -11.667L395.000 -23.333L383.333 -23.333L383.333 -58.333L395.000 -58.333L395.000 -70.000L406.667 -70.000ZM546.667 -81.667L593.333 -81.667L593.333 -70.000L605.000 -70.000L605.000 -58.333L581.667 -58.333L581.667 -70.000L558.333 -70.000L558.333 -46.667L593.333 -46.667L593.333 -35.000L605.000 -35.000L605.000 -11.667L593.333 -11.667L593.333 0.000L546.667 0.000L546.667 -11.667L535.000 -11.667L535.000 -23.333L558.333 -23.333L558.333 -11.667L581.667 -11.667L581.667 -35.000L546.667 -35.000L546.667 -46.667L535.000 -46.667L535.000 -70.000L546.667 -70.000ZM243.333 -70.000L243.333 -46.667L266.667 -46.667L266.667 -70.000ZM336.667 -70.000L336.667 -58.333L325.000 -58.333L325.000 -23.333L336.667 -23.333L336.667 -11.667L348.333 -11.667L348.333 -70.000ZM418.333 -70.000L418.333 -58.333L406.667 -58.333L406.667 -23.333L418.333 -23.333L418.333 -11.667L430.000 -11.667L430.000 -23.333L441.667 -23.333L441.667 -58.333L430.000 -58.333L430.000 -70.000Z"/>
      <circle cx="112" cy="-40" r="38" fill="#DE5548"/>
    </g>
  </g>

</svg>
