<?xml version="1.0" encoding="UTF-8" standalone="no"?>
<svg width="590" height="180" viewBox="0 0 590 180" xmlns="http://www.w3.org/2000/svg">
  <title>votedots wordmark</title>
  <desc>Transparent SVG wordmark extracted from the wordmark used in logo-full.svg.</desc>

  <rect width="100%" height="100%" fill="none"/>

  <g transform="translate(13.675,138.825)">
    <g transform="scale(0.93)">
      <path fill="#272E37" fill-rule="evenodd"
            d="M161.667 -105.000L185.000 -105.000L185.000 -81.667L208.333 -81.667L208.333 -70.000L185.000 -70.000L185.000 -11.667L208.333 -11.667L208.333 0.000L173.333 0.000L173.333 -11.667L161.667 -11.667L161.667 -70.000L150.000 -70.000L150.000 -81.667L161.667 -81.667ZM348.333 -105.000L371.667 -105.000L371.667 0.000L325.000 0.000L325.000 -11.667L313.333 -11.667L313.333 -23.333L301.667 -23.333L301.667 -58.333L313.333 -58.333L313.333 -70.000L325.000 -70.000L325.000 -81.667L348.333 -81.667ZM476.667 -105.000L500.000 -105.000L500.000 -81.667L523.333 -81.667L523.333 -70.000L500.000 -70.000L500.000 -11.667L523.333 -11.667L523.333 0.000L488.333 0.000L488.333 -11.667L476.667 -11.667L476.667 -70.000L465.000 -70.000L465.000 -81.667L476.667 -81.667ZM0.000 -81.667L23.333 -81.667L23.333 -58.333L46.667 -58.333L46.667 -81.667L70.000 -81.667L70.000 -58.333L58.333 -58.333L58.333 -23.333L46.667 -23.333L46.667 0.000L23.333 0.000L23.333 -23.333L11.667 -23.333L11.667 -58.333L0.000 -58.333ZM231.667 -81.667L278.333 -81.667L278.333 -70.000L290.000 -70.000L290.000 -35.000L243.333 -35.000L243.333 -11.667L266.667 -11.667L266.667 -23.333L290.000 -23.333L290.000 -11.667L278.333 -11.667L278.333 0.000L231.667 0.000L231.667 -11.667L220.000 -11.667L220.000 -70.000L231.667 -70.000ZM406.667 -81.667L441.667 -81.667L441.667 -70.000L453.333 -70.000L453.333 -58.333L465.000 -58.333L465.000 -23.333L453.333 -23.333L453.333 -11.667L441.667 -11.667L441.667 0.000L406.667 0.000L406.667 -11.667L395.000 -11.667L395.000 -23.333L383.333 -23.333L383.333 -58.333L395.000 -58.333L395.000 -70.000L406.667 -70.000ZM546.667 -81.667L593.333 -81.667L593.333 -70.000L605.000 -70.000L605.000 -58.333L581.667 -58.333L581.667 -70.000L558.333 -70.000L558.333 -46.667L593.333 -46.667L593.333 -35.000L605.000 -35.000L605.000 -11.667L593.333 -11.667L593.333 0.000L546.667 0.000L546.667 -11.667L535.000 -11.667L535.000 -23.333L558.333 -23.333L558.333 -11.667L581.667 -11.667L581.667 -35.000L546.667 -35.000L546.667 -46.667L535.000 -46.667L535.000 -70.000L546.667 -70.000ZM243.333 -70.000L243.333 -46.667L266.667 -46.667L266.667 -70.000ZM336.667 -70.000L336.667 -58.333L325.000 -58.333L325.000 -23.333L336.667 -23.333L336.667 -11.667L348.333 -11.667L348.333 -70.000ZM418.333 -70.000L418.333 -58.333L406.667 -58.333L406.667 -23.333L418.333 -23.333L418.333 -11.667L430.000 -11.667L430.000 -23.333L441.667 -23.333L441.667 -58.333L430.000 -58.333L430.000 -70.000Z"/>
      <circle cx="112" cy="-40" r="38" fill="#DE5548"/>
    </g>
  </g>
</svg>
