<svg xmlns="http://www.w3.org/2000/svg" width="1024" height="1024" viewBox="0 0 1024 1024">
  <defs>
    <linearGradient id="purpleGrad" x1="0%" y1="0%" x2="100%" y2="0%">
      <stop offset="0%" stop-color="#7C3AED"/>
      <stop offset="100%" stop-color="#A855F7"/>
    </linearGradient>
    <style>
      .grid { fill: none; stroke: #03162B; stroke-width: 22; stroke-linecap: round; stroke-linejoin: round; }
      .check { fill: none; stroke: #F7F7F7; stroke-width: 18; stroke-linecap: round; stroke-linejoin: round; }
    </style>
  </defs>

  <!-- Transparent background -->

  <!-- Grid outer shape -->
  <rect class="grid" x="265" y="260" width="494" height="494" rx="74" ry="74"/>

  <!-- Inner grid lines -->
  <line class="grid" x1="430" y1="260" x2="430" y2="754"/>
  <line class="grid" x1="594" y1="260" x2="594" y2="754"/>
  <line class="grid" x1="265" y1="425" x2="759" y2="425"/>
  <line class="grid" x1="265" y1="589" x2="759" y2="589"/>

  <!-- Center purple circle -->
  <circle cx="512" cy="507" r="50" fill="url(#purpleGrad)"/>

  <!-- Top green bubble -->
  <path d="M468 116
           H556
           C589 116 616 143 616 176
           V257
           C616 290 589 317 556 317
           H534
           L512 363
           L490 317
           H468
           C435 317 408 290 408 257
           V176
           C408 143 435 116 468 116Z"
        fill="#3DD68C"/>
  <path class="check" d="M474 210 L503 239 L554 188"/>

  <!-- Left red bubble -->
  <path d="M132 430
           H222
           C255 430 282 457 282 490
           V505
           L324 530
           L282 555
           V570
           C282 603 255 630 222 630
           H132
           C99 630 72 603 72 570
           V490
           C72 457 99 430 132 430Z"
        fill="#FF624E"/>
  <path class="check" d="M152 529 L182 559 L236 505"/>

  <!-- Right blue bubble -->
  <path d="M802 430
           H892
           C925 430 952 457 952 490
           V570
           C952 603 925 630 892 630
           H802
           C769 630 742 603 742 570
           V555
           L700 530
           L742 505
           V490
           C742 457 769 430 802 430Z"
        fill="#469AE5"/>
  <path class="check" d="M792 529 L822 559 L876 505"/>

  <!-- Bottom yellow bubble -->
  <path d="M468 738
           H490
           L512 694
           L534 738
           H556
           C589 738 616 765 616 798
           V888
           C616 921 589 948 556 948
           H468
           C435 948 408 921 408 888
           V798
           C408 765 435 738 468 738Z"
        fill="#F8B321"/>
  <path class="check" d="M474 848 L503 877 L554 826"/>
</svg>
